<?xml version="1.0" encoding="utf-8"?>
<!-- Generator: Adobe Illustrator 15.1.0, SVG Export Plug-In  -->
<!DOCTYPE svg PUBLIC "-//W3C//DTD SVG 1.1//EN" "http://www.w3.org/Graphics/SVG/1.1/DTD/svg11.dtd" [
	<!ENTITY ns_flows "http://ns.adobe.com/Flows/1.0/">
]>
<svg version="1.1"
	 xmlns="http://www.w3.org/2000/svg" xmlns:xlink="http://www.w3.org/1999/xlink" xmlns:a="http://ns.adobe.com/AdobeSVGViewerExtensions/3.0/"
	 x="0px" y="0px" width="942px" height="196px" viewBox="-7.082 -7.081 942 196"
	 overflow="visible" enable-background="new -7.082 -7.081 942 196" xml:space="preserve">
<defs>
</defs>
<path id="path8_1_" fill="#FF9900" d="M373.642,141.938c-34.999,25.797-85.729,39.561-129.406,39.561
	c-61.243,0-116.376-22.651-158.088-60.324c-3.277-2.963-0.341-7,3.592-4.693c45.015,26.19,100.673,41.947,158.167,41.947
	c38.774,0,81.43-8.022,120.649-24.67C374.482,131.242,379.436,137.639,373.642,141.938"/>
<path id="path10_1_" fill="#FF9900" d="M388.193,125.291c-4.457-5.716-29.572-2.701-40.846-1.363
	c-3.435,0.419-3.959-2.569-0.865-4.72c20.004-14.078,52.827-10.015,56.654-5.296c3.828,4.745-0.996,37.647-19.793,53.352
	c-2.885,2.412-5.637,1.127-4.353-2.071C383.211,154.653,392.676,131.032,388.193,125.291"/>
<path id="path12_1_" fill="#FFFFFF" d="M348.133,19.82V6.135c0-2.071,1.573-3.46,3.461-3.46h61.269c1.967,0,3.539,1.415,3.539,3.46
	v11.719c-0.025,1.967-1.678,4.536-4.614,8.6L380.04,71.782c11.798-0.289,24.251,1.468,34.947,7.498
	c2.412,1.363,3.067,3.355,3.251,5.321v14.604c0,1.992-2.202,4.325-4.51,3.119c-18.85-9.884-43.887-10.958-64.729,0.105
	c-2.123,1.153-4.352-1.153-4.352-3.146V85.415c0-2.229,0.026-6.03,2.254-9.412l36.782-52.748h-32.011
	C349.707,23.255,348.133,21.865,348.133,19.82"/>
<path id="path14_1_" fill="#FFFFFF" d="M124.635,105.208h-18.64c-1.783-0.131-3.198-1.468-3.33-3.172V6.371
	c0-1.914,1.6-3.435,3.592-3.435h17.382c1.809,0.078,3.251,1.468,3.382,3.198v12.506h0.341C131.897,6.555,140.417,0.918,151.9,0.918
	c11.667,0,18.955,5.637,24.198,17.723c4.509-12.086,14.76-17.723,25.745-17.723c7.812,0,16.359,3.225,21.576,10.46
	c5.899,8.049,4.693,19.741,4.693,29.992l-0.026,60.378c0,1.913-1.599,3.46-3.591,3.46h-18.614c-1.861-0.131-3.355-1.625-3.355-3.46
	V51.044c0-4.037,0.367-14.104-0.524-17.932c-1.39-6.424-5.558-8.232-10.958-8.232c-4.51,0-9.229,3.015-11.143,7.839
	c-1.914,4.824-1.73,12.898-1.73,18.325v50.704c0,1.913-1.6,3.46-3.592,3.46h-18.614c-1.888-0.131-3.356-1.625-3.356-3.46
	l-0.026-50.704c0-10.67,1.757-26.374-11.483-26.374c-13.397,0-12.873,15.311-12.873,26.374v50.704
	C128.227,103.661,126.627,105.208,124.635,105.208"/>
<path id="path16_1_" fill="#FFFFFF" d="M469.151,0.918c27.659,0,42.627,23.752,42.627,53.954c0,29.18-16.543,52.329-42.627,52.329
	c-27.161,0-41.947-23.753-41.947-53.352C427.204,24.067,442.173,0.918,469.151,0.918 M469.308,20.449
	c-13.738,0-14.604,18.719-14.604,30.386c0,11.692-0.183,36.65,14.446,36.65c14.446,0,15.127-20.134,15.127-32.403
	c0-8.075-0.342-17.723-2.779-25.378C479.401,23.045,475.233,20.449,469.308,20.449"/>
<path id="path18_1_" fill="#FFFFFF" d="M547.644,105.208h-18.561c-1.861-0.131-3.357-1.625-3.357-3.46L525.7,6.057
	c0.158-1.757,1.705-3.12,3.592-3.12h17.277c1.625,0.078,2.963,1.18,3.328,2.674v14.629h0.342
	c5.217-13.082,12.531-19.321,25.404-19.321c8.363,0,16.516,3.015,21.76,11.273c4.877,7.655,4.877,20.527,4.877,29.782v60.22
	c-0.211,1.678-1.758,3.015-3.592,3.015h-18.693c-1.703-0.131-3.119-1.389-3.303-3.015V50.231c0-10.46,1.205-25.771-11.666-25.771
	c-4.537,0-8.705,3.041-10.775,7.655c-2.623,5.846-2.963,11.666-2.963,18.115v51.517
	C551.261,103.661,549.636,105.208,547.644,105.208"/>
<path id="path20_1_" fill="#FFFFFF" d="M613.946,97.605c0-4.824,4.115-8.704,9.176-8.704s9.176,3.88,9.176,8.704
	c0,4.798-4.115,8.73-9.176,8.73S613.946,102.403,613.946,97.605"/>
<path id="path22_1_" fill="#FFFFFF" d="M811.438,105.234c-1.941-0.078-3.461-1.572-3.461-3.46V6.108
	c0.104-1.704,1.547-3.041,3.328-3.146h6.844c1.887,0,3.408,1.363,3.564,3.146v13.947c4.877-11.063,13.947-19.715,25.404-19.715
	h0.709h0.682c12.164,0,21.051,8.967,24.355,21.996c5.164-12.872,14.865-21.996,27.658-21.996h0.656h0.76
	c9.045,0,17.748,5.82,22.258,14.682c4.352,8.468,4.195,19.741,4.195,29.206l-0.027,57.546c0.027,1.835-1.467,3.329-3.328,3.46h-8.18
	c-1.783-0.078-3.225-1.337-3.461-2.988V44.229c0-6.843,0.34-14.105-2.439-20.345c-2.83-6.371-8.258-10.355-14.078-10.645
	c-6.502,0.315-12.479,5.061-16.359,11.457c-5.033,8.259-4.85,15.704-4.85,25.352v52.251c-0.236,1.572-1.625,2.805-3.33,2.936h-8.127
	c-1.939-0.078-3.486-1.572-3.486-3.46L860.673,40.4c0-5.637-0.34-12.27-2.936-17.329c-3.016-5.768-8.416-9.543-14.078-9.832
	c-5.873,0.341-11.799,4.824-15.312,10.042c-4.535,6.658-5.4,14.891-5.4,23.358v55.135c0,1.835-1.494,3.329-3.355,3.46H811.438"/>
<path id="path24_1_" fill="#FFFFFF" d="M755.28,107.228c-26.451,0-38.303-26.978-38.303-53.955
	c0-28.366,13.922-52.932,40.559-52.932h0.682h0.734c25.902,0,38.801,26.165,38.801,53.142c0,28.576-14.289,53.745-41.082,53.745
	h-0.682H755.28 M757.222,94.145c8.703-0.288,15.572-5.688,19.637-14.681c3.643-8.075,4.352-17.33,4.352-26.191
	c0-9.647-1.049-19.715-5.584-27.973c-4.064-7.21-11.037-11.798-18.432-12.061c-8.23,0.289-15.598,5.873-19.295,14.472
	c-3.33,7.446-4.352,17.33-4.352,25.562c0,9.255,1.205,19.951,5.033,28C742.304,88.901,749.462,93.856,757.222,94.145"/>
<path id="path26_1_" fill="#FFFFFF" d="M672.62,93.726c11.875-0.367,18.115-9.884,20.684-22.206
	c0.525-1.547,1.705-2.727,3.436-2.727l7.838-0.026c1.861,0.079,3.566,1.495,3.408,3.226c-3.617,20.999-16.279,35.235-34.316,35.235
	h-0.734h-0.682c-26.27,0-37.596-26.375-37.596-53.142c0-26.558,11.482-53.745,37.752-53.745h0.709h0.707
	c18.248,0,31.25,14.053,34.082,35.052c0,1.573-1.469,2.937-3.199,3.12l-8.205-0.104c-1.73-0.236-2.857-1.704-3.119-3.355
	c-1.967-11.72-8.705-21.053-19.926-21.42c-17.854,0.577-22.939,22.547-22.939,39.457C650.519,69.37,654.767,93.148,672.62,93.726"/>
<path fill="#FFFFFF" d="M332.482,87.67c-3.408-4.72-7.026-8.547-7.026-17.277V41.345c0-12.296,0.865-23.596-8.205-32.063
	C310.093,2.412,298.243,0,289.172,0c-17.723,0-37.542,6.606-41.685,28.524c-0.446,2.333,1.258,3.565,2.779,3.906l18.063,1.939
	c1.704-0.078,2.936-1.729,3.251-3.408c1.546-7.55,7.865-11.194,14.97-11.194c3.854,0,8.206,1.416,10.46,4.851
	c2.622,3.827,2.281,9.07,2.281,13.501v2.412c-10.801,1.232-24.932,2.019-35.052,6.476c-11.693,5.034-19.873,15.337-19.873,30.464
	c0,19.375,12.191,29.049,27.895,29.049c13.239,0,20.501-3.12,30.726-13.555c3.383,4.903,4.51,7.289,10.697,12.427
	c1.389,0.734,3.172,0.656,4.404-0.445l0.025,0.053c3.724-3.304,10.487-9.202,14.289-12.375
	C333.924,91.366,333.662,89.348,332.482,87.67z M295.805,79.28c-2.962,5.243-7.682,8.468-12.898,8.468
	c-7.157,0-11.352-5.453-11.352-13.502c0-15.887,14.236-18.771,27.737-18.771v4.037C299.292,66.774,299.475,72.831,295.805,79.28z"/>
<path fill="#FFFFFF" d="M88.115,87.67c-3.408-4.72-7.026-8.547-7.026-17.277V41.345c0-12.296,0.865-23.596-8.206-32.063
	C65.726,2.412,53.875,0,44.805,0C27.082,0,7.289,6.606,3.12,28.524c-0.419,2.333,1.258,3.565,2.779,3.906l18.089,1.939
	c1.678-0.078,2.91-1.729,3.225-3.408c1.546-7.55,7.891-11.194,14.996-11.194c3.828,0,8.18,1.416,10.461,4.851
	c2.595,3.827,2.254,9.07,2.254,13.501v2.412c-10.801,1.232-24.932,2.019-35.052,6.476C8.206,52.041,0,62.344,0,77.471
	c0,19.375,12.217,29.049,27.895,29.049c13.266,0,20.501-3.12,30.726-13.555c3.408,4.903,4.509,7.289,10.696,12.427
	c1.39,0.734,3.172,0.656,4.404-0.445l0.053,0.053c3.723-3.304,10.487-9.202,14.288-12.375C89.583,91.366,89.321,89.348,88.115,87.67
	z M51.438,79.28c-2.962,5.243-7.655,8.468-12.898,8.468c-7.157,0-11.326-5.453-11.326-13.502c0-15.887,14.235-18.771,27.711-18.771
	v4.037C54.924,66.774,55.108,72.831,51.438,79.28z"/>
</svg>
